<svg xmlns="http://www.w3.org/2000/svg" version="1.1" xmlns:xlink="http://www.w3.org/1999/xlink" viewBox="0 0 200 200"><rect width="200" height="200" fill="url('#gradient')"></rect><defs><linearGradient id="gradient" gradientTransform="rotate(45 0.5 0.5)"><stop offset="0%" stop-color="#f3c5a6"></stop><stop offset="100%" stop-color="#e0c6b0"></stop></linearGradient></defs><g><g fill="#6a2841" transform="matrix(3.8544542032622333,0,0,3.8544542032622333,14.357229626014217,121.83454545259177)" stroke="#b34a58" stroke-width="0.2"><path d="M1.16-10.57L4.46-10.57L4.46 0.36Q4.45 2.24 3.39 3.25Q2.32 4.27 0.42 4.27L0.42 4.27Q-0.40 4.27-1.13 4.10L-1.13 4.10L-1.13 1.61Q-0.57 1.70-0.21 1.70L-0.21 1.70Q1.16 1.70 1.16 0.34L1.16 0.34L1.16-10.57ZM0.92-13.29L0.92-13.29Q0.92-13.99 1.43-14.44Q1.93-14.89 2.74-14.89Q3.55-14.89 4.06-14.44Q4.57-13.99 4.57-13.29Q4.57-12.59 4.06-12.14Q3.55-11.69 2.74-11.69Q1.93-11.69 1.43-12.14Q0.92-12.59 0.92-13.29ZM8.90-10.57L10.54-3.92L12.21-10.57L15.67-10.57L12.23 0L8.87 0L5.42-10.57L8.90-10.57ZM21.84 1.79L21.22 3.52Q17.71 2.53 17.71-1.03L17.71-1.03L17.71-2.96Q17.71-4.93 16.12-4.93L16.12-4.93L16.12-7.15Q17.71-7.15 17.71-9.13L17.71-9.13L17.71-11.18Q17.73-12.94 18.62-14.02Q19.50-15.11 21.22-15.60L21.22-15.60L21.84-13.88Q20.61-13.41 20.56-11.25L20.56-11.25L20.56-9.13Q20.56-6.94 18.75-6.04L18.75-6.04Q20.56-5.15 20.56-2.95L20.56-2.95L20.56-0.84Q20.61 1.32 21.84 1.79L21.84 1.79ZM23.17-10.57L26.26-10.57L26.37-9.33Q27.49-10.76 29.38-10.76L29.38-10.76Q31.39-10.76 32.09-9.17L32.09-9.17Q33.16-10.76 35.20-10.76L35.20-10.76Q38.41-10.76 38.50-6.88L38.50-6.88L38.50 0L35.20 0L35.20-6.67Q35.20-7.48 34.92-7.85Q34.65-8.22 33.93-8.22L33.93-8.22Q32.95-8.22 32.47-7.35L32.47-7.35L32.48-7.22L32.48 0L29.18 0L29.18-6.65Q29.18-7.48 28.92-7.85Q28.65-8.22 27.91-8.22L27.91-8.22Q26.96-8.22 26.46-7.35L26.46-7.35L26.46 0L23.17 0L23.17-10.57ZM40.47 3.52L39.85 1.79Q41.08 1.32 41.13-0.84L41.13-0.84L41.13-2.96Q41.13-5.16 42.95-6.04L42.95-6.04Q41.13-6.93 41.13-9.13L41.13-9.13L41.13-11.25Q41.08-13.41 39.85-13.88L39.85-13.88L40.47-15.60Q42.22-15.11 43.10-14.00Q43.97-12.89 43.98-11.09L43.98-11.09L43.98-9.13Q43.98-7.15 45.57-7.15L45.57-7.15L45.57-4.93Q43.98-4.93 43.98-2.97L43.98-2.97L43.98-0.89Q43.92 2.55 40.47 3.52L40.47 3.52Z"></path></g></g></svg>